<?xml version="1.0" standalone="no"?>
<!DOCTYPE svg PUBLIC "-//W3C//DTD SVG 20010904//EN"
 "http://www.w3.org/TR/2001/REC-SVG-20010904/DTD/svg10.dtd">
<svg version="1.0" xmlns="http://www.w3.org/2000/svg"
 width="860.000000pt" height="1163.000000pt" viewBox="0 0 860.000000 1163.000000"
 preserveAspectRatio="xMidYMid meet">
<metadata>
Created by potrace 1.16, written by Peter Selinger 2001-2019
</metadata>
<g transform="translate(0.000000,1163.000000) scale(0.100000,-0.100000)"
fill="#000000" stroke="none">
<path d="M3625 11210 c-170 -27 -325 -100 -431 -205 -76 -75 -108 -130 -123
-211 -12 -63 -6 -108 53 -387 25 -119 46 -221 46 -226 0 -4 -19 -13 -42 -20
-99 -30 -356 -140 -538 -232 -316 -159 -573 -322 -840 -533 -142 -113 -443
-409 -544 -536 -210 -264 -395 -616 -433 -825 -21 -120 -19 -320 7 -444 32
-157 95 -306 184 -436 22 -33 42 -67 42 -75 1 -8 30 -80 64 -160 107 -249 349
-848 915 -2260 905 -2258 1199 -2969 1365 -3300 60 -119 143 -223 284 -357
606 -571 1449 -734 2451 -473 229 59 303 85 430 150 719 370 1207 912 1310
1452 18 98 20 195 6 413 -45 691 -92 2592 -121 4800 -5 429 -12 893 -15 1030
-3 138 -7 345 -9 460 -3 169 -7 227 -24 295 -175 728 -839 1178 -1964 1331
-297 40 -854 37 -1262 -7 -98 -11 -141 -12 -146 -4 -3 6 -26 101 -50 213 -24
111 -47 204 -52 205 -4 2 -8 23 -8 46 0 90 -88 204 -193 250 -103 45 -247 63
-362 46z m218 -311 c20 -5 37 -14 37 -18 0 -18 -94 -94 -146 -118 -88 -40
-204 -59 -282 -45 -90 15 -94 23 -42 73 98 93 303 144 433 108z m307 -1255
l194 -887 -23 -43 c-27 -51 -68 -85 -149 -122 -52 -24 -68 -27 -172 -27 -84 0
-125 4 -150 16 l-36 16 -187 899 c-103 494 -187 902 -187 905 0 4 48 9 108 11
128 6 210 26 317 78 44 21 83 39 86 39 3 1 93 -398 199 -885z m1445 521 c1005
-120 1606 -486 1762 -1073 22 -84 26 -118 27 -252 1 -221 -37 -376 -141 -585
-65 -129 -127 -215 -262 -357 -465 -491 -946 -818 -1563 -1062 -597 -236
-1219 -348 -1928 -349 -589 0 -1059 68 -1410 205 -293 115 -558 284 -736 470
-96 100 -154 182 -204 292 -65 141 -75 191 -75 366 1 149 2 159 33 249 67 194
195 417 349 611 84 106 319 343 435 438 351 290 808 554 1242 717 50 19 96 35
102 35 6 0 74 -306 158 -707 81 -390 154 -718 162 -730 21 -32 111 -98 174
-127 111 -50 264 -67 400 -45 253 41 445 195 519 416 l21 62 -152 696 c-83
382 -149 697 -146 700 7 7 277 34 451 45 196 12 625 4 782 -15z m1815 -3230
c29 -2031 73 -3735 112 -4325 19 -297 16 -400 -16 -505 -73 -239 -221 -464
-453 -685 -185 -177 -449 -358 -695 -478 -166 -81 -511 -169 -813 -208 -177
-23 -491 -23 -652 -1 -456 63 -827 251 -1133 575 -91 96 -108 119 -157 222
-162 338 -518 1204 -1381 3360 -237 591 -491 1225 -565 1407 l-135 333 62 -36
c105 -61 336 -170 451 -212 519 -190 1465 -251 2240 -146 1086 147 1988 559
2723 1243 108 101 312 320 365 393 l32 43 2 -120 c1 -66 7 -453 13 -860z"/>
<path d="M6043 3235 c-114 -31 -200 -101 -249 -203 -24 -48 -28 -70 -29 -142
0 -77 3 -92 32 -151 39 -79 102 -140 181 -177 50 -24 70 -27 157 -27 88 0 107
3 157 27 80 37 149 105 184 181 25 53 29 74 29 147 0 74 -4 93 -29 144 -52
107 -147 180 -264 205 -67 14 -104 13 -169 -4z"/>
<path d="M4519 2947 c-31 -13 -70 -33 -86 -45 -118 -84 -177 -244 -139 -376
22 -76 52 -121 115 -179 164 -147 439 -112 560 70 65 98 78 231 32 336 -28 66
-104 143 -176 180 -52 27 -72 31 -155 34 -82 3 -103 0 -151 -20z"/>
<path d="M6958 2809 c-120 -17 -233 -102 -286 -217 -22 -47 -26 -72 -26 -137
0 -95 28 -167 93 -238 177 -191 512 -143 618 90 120 263 -102 542 -399 502z"/>
<path d="M5477 2448 c-81 -10 -138 -38 -202 -99 -67 -63 -104 -137 -112 -223
-17 -185 125 -359 312 -384 122 -16 230 15 311 90 58 53 88 100 108 168 20 68
20 122 0 190 -20 69 -50 115 -108 168 -81 75 -187 106 -309 90z"/>
<path d="M4010 2155 c-114 -32 -225 -137 -256 -244 -23 -76 -16 -181 17 -251
108 -229 428 -282 609 -101 221 221 70 586 -250 607 -40 2 -86 -2 -120 -11z"/>
<path d="M6360 2024 c-75 -20 -129 -54 -183 -114 -139 -155 -112 -403 58 -520
213 -146 502 -56 581 182 25 76 16 189 -21 263 -50 98 -152 174 -264 195 -70
13 -104 12 -171 -6z"/>
<path d="M4855 1665 c-27 -8 -53 -14 -56 -15 -26 -1 -132 -89 -163 -133 -125
-183 -55 -428 152 -525 50 -24 70 -27 157 -27 88 0 107 3 157 27 76 35 151
107 185 177 24 48 28 68 28 146 0 77 -4 98 -26 145 -40 84 -90 135 -172 175
-87 42 -183 53 -262 30z"/>
</g>
</svg>
